<svg width="1161" height="889" viewBox="0 0 1161 889" fill="none" xmlns="http://www.w3.org/2000/svg">
<path fill-rule="evenodd" clip-rule="evenodd" d="M490.914 -328.488C584.816 -388.839 706.328 -305.147 812.445 -270.44C901.841 -241.201 987.671 -207.371 1056.69 -143.445C1128.51 -76.9232 1182.46 4.47409 1210.51 98.2672C1242.23 204.339 1270.83 320.816 1225.74 421.899C1179.65 525.226 1082.3 611.001 971.538 633.99C868.06 655.466 782.585 552.577 678.273 535.525C573.351 518.373 457.989 590.47 367.155 535.189C271.38 476.901 199.872 360.625 207.041 248.736C214.06 139.198 353.437 91.9167 401.868 -6.56121C452.231 -108.969 394.927 -266.797 490.914 -328.488Z" fill="#FFCB47"/>
</svg>
